<?xml version="1.0" encoding="UTF-8"?>
<svg xmlns="http://www.w3.org/2000/svg" xmlns:xlink="http://www.w3.org/1999/xlink" width="1920" height="1080" viewBox="0 0 1920 1080">
<defs>
<g>
<g id="glyph-0-0">
<path d="M 4.222656 -3.835938 L 4.035156 -3.835938 C 3.972656 -4.148438 3.910156 -4.363281 3.84375 -4.480469 C 3.753906 -4.636719 3.625 -4.742188 3.453125 -4.789062 C 3.351562 -4.816406 3.175781 -4.832031 2.933594 -4.832031 L 1.90625 -4.832031 C 1.683594 -4.832031 1.570312 -4.730469 1.570312 -4.527344 L 1.570312 -0.621094 C 1.570312 -0.320312 1.832031 -0.164062 2.347656 -0.148438 L 2.347656 0 L 0.09375 0 L 0.09375 -0.148438 C 0.550781 -0.164062 0.777344 -0.320312 0.777344 -0.621094 L 0.777344 -4.527344 C 0.777344 -4.828125 0.550781 -4.984375 0.09375 -5 L 0.09375 -5.148438 L 4.175781 -5.148438 Z "/>
</g>
<g id="glyph-0-1">
<path d="M 0.0859375 -0.148438 C 0.542969 -0.164062 0.769531 -0.320312 0.769531 -0.621094 L 0.769531 -4.527344 C 0.769531 -4.828125 0.554688 -4.984375 0.125 -5 L 0.125 -5.148438 L 2.085938 -5.148438 C 2.648438 -5.148438 3.117188 -5.058594 3.484375 -4.878906 C 3.972656 -4.640625 4.214844 -4.269531 4.214844 -3.761719 C 4.214844 -3.238281 4.003906 -2.84375 3.585938 -2.578125 C 3.234375 -2.359375 2.777344 -2.25 2.21875 -2.25 C 2.058594 -2.25 1.839844 -2.261719 1.566406 -2.285156 L 1.566406 -0.621094 C 1.566406 -0.320312 1.792969 -0.164062 2.25 -0.148438 L 2.25 0 L 0.0859375 0 Z M 1.566406 -2.574219 L 1.6875 -2.566406 C 1.847656 -2.558594 1.949219 -2.550781 1.988281 -2.550781 C 2.910156 -2.550781 3.367188 -2.941406 3.367188 -3.71875 C 3.367188 -4.480469 2.863281 -4.859375 1.855469 -4.859375 C 1.714844 -4.859375 1.628906 -4.832031 1.59375 -4.777344 C 1.574219 -4.746094 1.566406 -4.652344 1.566406 -4.503906 Z "/>
</g>
<g id="glyph-0-2">
<path d="M 2.855469 -5.253906 L 4.75 -0.910156 C 4.863281 -0.652344 4.949219 -0.484375 5.011719 -0.402344 C 5.136719 -0.238281 5.296875 -0.152344 5.492188 -0.148438 L 5.492188 0 L 3.507812 0 L 3.507812 -0.148438 C 3.875 -0.167969 4.058594 -0.253906 4.058594 -0.402344 C 4.058594 -0.507812 3.996094 -0.714844 3.867188 -1.019531 L 3.585938 -1.679688 L 1.550781 -1.679688 C 1.5 -1.550781 1.453125 -1.433594 1.410156 -1.328125 C 1.222656 -0.886719 1.128906 -0.601562 1.128906 -0.46875 C 1.128906 -0.261719 1.304688 -0.15625 1.65625 -0.148438 L 1.65625 0 L 0.117188 0 L 0.117188 -0.148438 C 0.292969 -0.179688 0.425781 -0.25 0.519531 -0.347656 C 0.65625 -0.496094 0.855469 -0.882812 1.121094 -1.507812 L 2.699219 -5.253906 Z M 1.679688 -1.996094 L 3.476562 -1.996094 L 2.574219 -4.140625 Z "/>
</g>
<g id="glyph-0-3">
<path d="M 5.59375 -2.574219 C 5.59375 -1.925781 5.25 -1.445312 4.566406 -1.144531 C 4.261719 -1.007812 3.839844 -0.925781 3.304688 -0.894531 L 3.304688 -0.621094 C 3.304688 -0.320312 3.53125 -0.164062 3.992188 -0.148438 L 3.992188 0 L 1.828125 0 L 1.828125 -0.148438 C 2.285156 -0.164062 2.515625 -0.320312 2.515625 -0.621094 L 2.515625 -0.894531 C 1.980469 -0.925781 1.558594 -1.007812 1.253906 -1.144531 C 0.566406 -1.445312 0.222656 -1.921875 0.222656 -2.574219 C 0.222656 -3.226562 0.566406 -3.707031 1.253906 -4.007812 C 1.554688 -4.136719 1.976562 -4.21875 2.515625 -4.253906 L 2.515625 -4.527344 C 2.515625 -4.828125 2.285156 -4.984375 1.828125 -5 L 1.828125 -5.148438 L 3.992188 -5.148438 L 3.992188 -5 C 3.535156 -4.984375 3.304688 -4.828125 3.304688 -4.527344 L 3.304688 -4.253906 C 3.84375 -4.21875 4.261719 -4.136719 4.566406 -4.007812 C 5.25 -3.707031 5.59375 -3.226562 5.59375 -2.574219 Z M 4.71875 -2.574219 C 4.71875 -3.242188 4.457031 -3.683594 3.925781 -3.902344 C 3.757812 -3.972656 3.550781 -4.015625 3.304688 -4.027344 L 3.304688 -1.121094 C 3.554688 -1.132812 3.761719 -1.175781 3.925781 -1.246094 C 4.457031 -1.472656 4.71875 -1.917969 4.71875 -2.574219 Z M 2.515625 -1.121094 L 2.515625 -4.027344 C 2.265625 -4.015625 2.054688 -3.976562 1.890625 -3.902344 C 1.363281 -3.675781 1.097656 -3.234375 1.097656 -2.574219 C 1.097656 -1.910156 1.363281 -1.464844 1.890625 -1.246094 C 2.0625 -1.175781 2.269531 -1.132812 2.515625 -1.121094 Z "/>
</g>
<g id="glyph-0-4">
<path d="M 2.316406 0 L 0.15625 0 L 0.15625 -0.148438 C 0.613281 -0.164062 0.839844 -0.320312 0.839844 -0.621094 L 0.839844 -4.527344 C 0.839844 -4.828125 0.613281 -4.984375 0.15625 -5 L 0.15625 -5.148438 L 2.316406 -5.148438 L 2.316406 -5 C 1.859375 -4.984375 1.632812 -4.828125 1.632812 -4.527344 L 1.632812 -1.378906 L 4.128906 -4.527344 C 4.128906 -4.828125 3.898438 -4.984375 3.445312 -5 L 3.445312 -5.148438 L 5.609375 -5.148438 L 5.609375 -5 C 5.152344 -4.984375 4.921875 -4.828125 4.921875 -4.527344 L 4.921875 -0.621094 C 4.921875 -0.320312 5.152344 -0.164062 5.609375 -0.148438 L 5.609375 0 L 3.445312 0 L 3.445312 -0.148438 C 3.898438 -0.164062 4.128906 -0.320312 4.128906 -0.621094 L 4.128906 -3.980469 L 1.632812 -0.851562 L 1.632812 -0.621094 C 1.632812 -0.320312 1.859375 -0.164062 2.316406 -0.148438 Z "/>
</g>
<g id="glyph-0-5">
<path d="M 5.476562 0 L 3.21875 0 L 3.21875 -0.148438 C 3.621094 -0.148438 3.820312 -0.210938 3.820312 -0.335938 C 3.820312 -0.402344 3.761719 -0.496094 3.648438 -0.613281 L 1.867188 -2.457031 L 1.648438 -2.457031 L 1.648438 -0.621094 C 1.648438 -0.320312 1.882812 -0.164062 2.347656 -0.148438 L 2.347656 0 L 0.15625 0 L 0.15625 -0.148438 C 0.621094 -0.164062 0.855469 -0.320312 0.855469 -0.621094 L 0.855469 -4.527344 C 0.855469 -4.828125 0.621094 -4.984375 0.15625 -5 L 0.15625 -5.148438 L 2.367188 -5.148438 L 2.367188 -5 C 1.886719 -4.984375 1.648438 -4.828125 1.648438 -4.527344 L 1.648438 -2.675781 L 1.773438 -2.675781 L 3.34375 -4.261719 C 3.566406 -4.488281 3.679688 -4.648438 3.679688 -4.742188 C 3.679688 -4.90625 3.507812 -4.992188 3.167969 -5 L 3.167969 -5.148438 L 5.1875 -5.148438 L 5.1875 -5 C 4.964844 -4.988281 4.78125 -4.949219 4.636719 -4.882812 C 4.359375 -4.757812 3.988281 -4.457031 3.523438 -3.984375 L 2.480469 -2.917969 L 4.578125 -0.667969 C 4.777344 -0.457031 4.957031 -0.3125 5.117188 -0.230469 C 5.167969 -0.207031 5.289062 -0.179688 5.476562 -0.148438 Z "/>
</g>
</g>
</defs>
<g fill="rgb(61.960784%, 61.960784%, 61.960784%)" fill-opacity="1">
<use xlink:href="#glyph-0-0" x="30" y="25.833008"/>
<use xlink:href="#glyph-0-1" x="34" y="25.833008"/>
<use xlink:href="#glyph-0-2" x="38" y="25.833008"/>
<use xlink:href="#glyph-0-3" x="44" y="25.833008"/>
<use xlink:href="#glyph-0-4" x="50" y="25.833008"/>
<use xlink:href="#glyph-0-5" x="56" y="25.833008"/>
</g>
</svg>
